<?xml version="1.0" standalone="no"?>
<svg xmlns="http://www.w3.org/2000/svg" width="500" height="500">
    <defs>
        <clipPath id="clip-path-dot-color">
            <circle cx="26" cy="170" r="8" transform="rotate(0,26,170)"/>
            <circle cx="26" cy="202" r="8" transform="rotate(0,26,202)"/>
            <circle cx="26" cy="218" r="8" transform="rotate(0,26,218)"/>
            <circle cx="26" cy="250" r="8" transform="rotate(0,26,250)"/>
            <circle cx="26" cy="314" r="8" transform="rotate(0,26,314)"/>
            <circle cx="26" cy="330" r="8" transform="rotate(0,26,330)"/>
            <circle cx="26" cy="346" r="8" transform="rotate(0,26,346)"/>
            <circle cx="42" cy="154" r="8" transform="rotate(0,42,154)"/>
            <circle cx="42" cy="202" r="8" transform="rotate(0,42,202)"/>
            <circle cx="42" cy="234" r="8" transform="rotate(0,42,234)"/>
            <circle cx="42" cy="266" r="8" transform="rotate(0,42,266)"/>
            <circle cx="42" cy="298" r="8" transform="rotate(0,42,298)"/>
            <circle cx="42" cy="330" r="8" transform="rotate(0,42,330)"/>
            <circle cx="42" cy="346" r="8" transform="rotate(0,42,346)"/>
            <circle cx="58" cy="186" r="8" transform="rotate(0,58,186)"/>
            <circle cx="58" cy="250" r="8" transform="rotate(0,58,250)"/>
            <circle cx="58" cy="266" r="8" transform="rotate(0,58,266)"/>
            <circle cx="58" cy="314" r="8" transform="rotate(0,58,314)"/>
            <circle cx="58" cy="346" r="8" transform="rotate(0,58,346)"/>
            <circle cx="74" cy="154" r="8" transform="rotate(0,74,154)"/>
            <circle cx="74" cy="186" r="8" transform="rotate(0,74,186)"/>
            <circle cx="74" cy="202" r="8" transform="rotate(0,74,202)"/>
            <circle cx="74" cy="218" r="8" transform="rotate(0,74,218)"/>
            <circle cx="74" cy="250" r="8" transform="rotate(0,74,250)"/>
            <circle cx="74" cy="282" r="8" transform="rotate(0,74,282)"/>
            <circle cx="74" cy="298" r="8" transform="rotate(0,74,298)"/>
            <circle cx="74" cy="330" r="8" transform="rotate(0,74,330)"/>
            <circle cx="74" cy="346" r="8" transform="rotate(0,74,346)"/>
            <circle cx="90" cy="154" r="8" transform="rotate(0,90,154)"/>
            <circle cx="90" cy="186" r="8" transform="rotate(0,90,186)"/>
            <circle cx="90" cy="218" r="8" transform="rotate(0,90,218)"/>
            <circle cx="90" cy="234" r="8" transform="rotate(0,90,234)"/>
            <circle cx="90" cy="314" r="8" transform="rotate(0,90,314)"/>
            <circle cx="90" cy="330" r="8" transform="rotate(0,90,330)"/>
            <circle cx="106" cy="170" r="8" transform="rotate(0,106,170)"/>
            <circle cx="106" cy="202" r="8" transform="rotate(0,106,202)"/>
            <circle cx="106" cy="218" r="8" transform="rotate(0,106,218)"/>
            <circle cx="106" cy="250" r="8" transform="rotate(0,106,250)"/>
            <circle cx="106" cy="346" r="8" transform="rotate(0,106,346)"/>
            <circle cx="122" cy="154" r="8" transform="rotate(0,122,154)"/>
            <circle cx="122" cy="186" r="8" transform="rotate(0,122,186)"/>
            <circle cx="122" cy="218" r="8" transform="rotate(0,122,218)"/>
            <circle cx="122" cy="250" r="8" transform="rotate(0,122,250)"/>
            <circle cx="122" cy="282" r="8" transform="rotate(0,122,282)"/>
            <circle cx="122" cy="314" r="8" transform="rotate(0,122,314)"/>
            <circle cx="122" cy="346" r="8" transform="rotate(0,122,346)"/>
            <circle cx="138" cy="154" r="8" transform="rotate(0,138,154)"/>
            <circle cx="138" cy="170" r="8" transform="rotate(0,138,170)"/>
            <circle cx="138" cy="202" r="8" transform="rotate(0,138,202)"/>
            <circle cx="138" cy="234" r="8" transform="rotate(0,138,234)"/>
            <circle cx="138" cy="250" r="8" transform="rotate(0,138,250)"/>
            <circle cx="138" cy="298" r="8" transform="rotate(0,138,298)"/>
            <circle cx="138" cy="314" r="8" transform="rotate(0,138,314)"/>
            <circle cx="138" cy="330" r="8" transform="rotate(0,138,330)"/>
            <circle cx="138" cy="346" r="8" transform="rotate(0,138,346)"/>
            <circle cx="154" cy="42" r="8" transform="rotate(0,154,42)"/>
            <circle cx="154" cy="74" r="8" transform="rotate(0,154,74)"/>
            <circle cx="154" cy="90" r="8" transform="rotate(0,154,90)"/>
            <circle cx="154" cy="106" r="8" transform="rotate(0,154,106)"/>
            <circle cx="154" cy="122" r="8" transform="rotate(0,154,122)"/>
            <circle cx="154" cy="154" r="8" transform="rotate(0,154,154)"/>
            <circle cx="154" cy="186" r="8" transform="rotate(0,154,186)"/>
            <circle cx="154" cy="218" r="8" transform="rotate(0,154,218)"/>
            <circle cx="154" cy="250" r="8" transform="rotate(0,154,250)"/>
            <circle cx="154" cy="330" r="8" transform="rotate(0,154,330)"/>
            <circle cx="154" cy="362" r="8" transform="rotate(0,154,362)"/>
            <circle cx="154" cy="378" r="8" transform="rotate(0,154,378)"/>
            <circle cx="154" cy="410" r="8" transform="rotate(0,154,410)"/>
            <circle cx="154" cy="426" r="8" transform="rotate(0,154,426)"/>
            <circle cx="154" cy="458" r="8" transform="rotate(0,154,458)"/>
            <circle cx="170" cy="26" r="8" transform="rotate(0,170,26)"/>
            <circle cx="170" cy="42" r="8" transform="rotate(0,170,42)"/>
            <circle cx="170" cy="58" r="8" transform="rotate(0,170,58)"/>
            <circle cx="170" cy="74" r="8" transform="rotate(0,170,74)"/>
            <circle cx="170" cy="90" r="8" transform="rotate(0,170,90)"/>
            <circle cx="170" cy="138" r="8" transform="rotate(0,170,138)"/>
            <circle cx="170" cy="186" r="8" transform="rotate(0,170,186)"/>
            <circle cx="170" cy="234" r="8" transform="rotate(0,170,234)"/>
            <circle cx="170" cy="298" r="8" transform="rotate(0,170,298)"/>
            <circle cx="170" cy="314" r="8" transform="rotate(0,170,314)"/>
            <circle cx="170" cy="330" r="8" transform="rotate(0,170,330)"/>
            <circle cx="170" cy="394" r="8" transform="rotate(0,170,394)"/>
            <circle cx="170" cy="410" r="8" transform="rotate(0,170,410)"/>
            <circle cx="170" cy="442" r="8" transform="rotate(0,170,442)"/>
            <circle cx="170" cy="458" r="8" transform="rotate(0,170,458)"/>
            <circle cx="186" cy="74" r="8" transform="rotate(0,186,74)"/>
            <circle cx="186" cy="122" r="8" transform="rotate(0,186,122)"/>
            <circle cx="186" cy="218" r="8" transform="rotate(0,186,218)"/>
            <circle cx="186" cy="234" r="8" transform="rotate(0,186,234)"/>
            <circle cx="186" cy="266" r="8" transform="rotate(0,186,266)"/>
            <circle cx="186" cy="362" r="8" transform="rotate(0,186,362)"/>
            <circle cx="186" cy="378" r="8" transform="rotate(0,186,378)"/>
            <circle cx="186" cy="426" r="8" transform="rotate(0,186,426)"/>
            <circle cx="186" cy="442" r="8" transform="rotate(0,186,442)"/>
            <circle cx="202" cy="26" r="8" transform="rotate(0,202,26)"/>
            <circle cx="202" cy="90" r="8" transform="rotate(0,202,90)"/>
            <circle cx="202" cy="106" r="8" transform="rotate(0,202,106)"/>
            <circle cx="202" cy="138" r="8" transform="rotate(0,202,138)"/>
            <circle cx="202" cy="154" r="8" transform="rotate(0,202,154)"/>
            <circle cx="202" cy="218" r="8" transform="rotate(0,202,218)"/>
            <circle cx="202" cy="298" r="8" transform="rotate(0,202,298)"/>
            <circle cx="202" cy="330" r="8" transform="rotate(0,202,330)"/>
            <circle cx="202" cy="394" r="8" transform="rotate(0,202,394)"/>
            <circle cx="202" cy="410" r="8" transform="rotate(0,202,410)"/>
            <circle cx="202" cy="426" r="8" transform="rotate(0,202,426)"/>
            <circle cx="202" cy="474" r="8" transform="rotate(0,202,474)"/>
            <circle cx="218" cy="42" r="8" transform="rotate(0,218,42)"/>
            <circle cx="218" cy="74" r="8" transform="rotate(0,218,74)"/>
            <circle cx="218" cy="106" r="8" transform="rotate(0,218,106)"/>
            <circle cx="218" cy="122" r="8" transform="rotate(0,218,122)"/>
            <circle cx="218" cy="170" r="8" transform="rotate(0,218,170)"/>
            <circle cx="218" cy="266" r="8" transform="rotate(0,218,266)"/>
            <circle cx="218" cy="330" r="8" transform="rotate(0,218,330)"/>
            <circle cx="218" cy="346" r="8" transform="rotate(0,218,346)"/>
            <circle cx="218" cy="362" r="8" transform="rotate(0,218,362)"/>
            <circle cx="218" cy="378" r="8" transform="rotate(0,218,378)"/>
            <circle cx="218" cy="458" r="8" transform="rotate(0,218,458)"/>
            <circle cx="234" cy="42" r="8" transform="rotate(0,234,42)"/>
            <circle cx="234" cy="58" r="8" transform="rotate(0,234,58)"/>
            <circle cx="234" cy="90" r="8" transform="rotate(0,234,90)"/>
            <circle cx="234" cy="138" r="8" transform="rotate(0,234,138)"/>
            <circle cx="234" cy="154" r="8" transform="rotate(0,234,154)"/>
            <circle cx="234" cy="170" r="8" transform="rotate(0,234,170)"/>
            <circle cx="234" cy="202" r="8" transform="rotate(0,234,202)"/>
            <circle cx="234" cy="234" r="8" transform="rotate(0,234,234)"/>
            <circle cx="234" cy="250" r="8" transform="rotate(0,234,250)"/>
            <circle cx="234" cy="378" r="8" transform="rotate(0,234,378)"/>
            <circle cx="234" cy="410" r="8" transform="rotate(0,234,410)"/>
            <circle cx="234" cy="442" r="8" transform="rotate(0,234,442)"/>
            <circle cx="234" cy="474" r="8" transform="rotate(0,234,474)"/>
            <circle cx="250" cy="26" r="8" transform="rotate(0,250,26)"/>
            <circle cx="250" cy="42" r="8" transform="rotate(0,250,42)"/>
            <circle cx="250" cy="74" r="8" transform="rotate(0,250,74)"/>
            <circle cx="250" cy="90" r="8" transform="rotate(0,250,90)"/>
            <circle cx="250" cy="106" r="8" transform="rotate(0,250,106)"/>
            <circle cx="250" cy="122" r="8" transform="rotate(0,250,122)"/>
            <circle cx="250" cy="186" r="8" transform="rotate(0,250,186)"/>
            <circle cx="250" cy="202" r="8" transform="rotate(0,250,202)"/>
            <circle cx="250" cy="218" r="8" transform="rotate(0,250,218)"/>
            <circle cx="250" cy="234" r="8" transform="rotate(0,250,234)"/>
            <circle cx="250" cy="282" r="8" transform="rotate(0,250,282)"/>
            <circle cx="250" cy="314" r="8" transform="rotate(0,250,314)"/>
            <circle cx="250" cy="330" r="8" transform="rotate(0,250,330)"/>
            <circle cx="250" cy="346" r="8" transform="rotate(0,250,346)"/>
            <circle cx="250" cy="394" r="8" transform="rotate(0,250,394)"/>
            <circle cx="250" cy="426" r="8" transform="rotate(0,250,426)"/>
            <circle cx="250" cy="474" r="8" transform="rotate(0,250,474)"/>
            <circle cx="266" cy="42" r="8" transform="rotate(0,266,42)"/>
            <circle cx="266" cy="90" r="8" transform="rotate(0,266,90)"/>
            <circle cx="266" cy="154" r="8" transform="rotate(0,266,154)"/>
            <circle cx="266" cy="186" r="8" transform="rotate(0,266,186)"/>
            <circle cx="266" cy="218" r="8" transform="rotate(0,266,218)"/>
            <circle cx="266" cy="234" r="8" transform="rotate(0,266,234)"/>
            <circle cx="266" cy="330" r="8" transform="rotate(0,266,330)"/>
            <circle cx="266" cy="346" r="8" transform="rotate(0,266,346)"/>
            <circle cx="266" cy="362" r="8" transform="rotate(0,266,362)"/>
            <circle cx="266" cy="410" r="8" transform="rotate(0,266,410)"/>
            <circle cx="266" cy="426" r="8" transform="rotate(0,266,426)"/>
            <circle cx="266" cy="442" r="8" transform="rotate(0,266,442)"/>
            <circle cx="266" cy="474" r="8" transform="rotate(0,266,474)"/>
            <circle cx="282" cy="42" r="8" transform="rotate(0,282,42)"/>
            <circle cx="282" cy="58" r="8" transform="rotate(0,282,58)"/>
            <circle cx="282" cy="74" r="8" transform="rotate(0,282,74)"/>
            <circle cx="282" cy="122" r="8" transform="rotate(0,282,122)"/>
            <circle cx="282" cy="138" r="8" transform="rotate(0,282,138)"/>
            <circle cx="282" cy="154" r="8" transform="rotate(0,282,154)"/>
            <circle cx="282" cy="170" r="8" transform="rotate(0,282,170)"/>
            <circle cx="282" cy="186" r="8" transform="rotate(0,282,186)"/>
            <circle cx="282" cy="202" r="8" transform="rotate(0,282,202)"/>
            <circle cx="282" cy="250" r="8" transform="rotate(0,282,250)"/>
            <circle cx="282" cy="266" r="8" transform="rotate(0,282,266)"/>
            <circle cx="282" cy="298" r="8" transform="rotate(0,282,298)"/>
            <circle cx="282" cy="314" r="8" transform="rotate(0,282,314)"/>
            <circle cx="282" cy="346" r="8" transform="rotate(0,282,346)"/>
            <circle cx="282" cy="394" r="8" transform="rotate(0,282,394)"/>
            <circle cx="282" cy="426" r="8" transform="rotate(0,282,426)"/>
            <circle cx="282" cy="474" r="8" transform="rotate(0,282,474)"/>
            <circle cx="298" cy="26" r="8" transform="rotate(0,298,26)"/>
            <circle cx="298" cy="74" r="8" transform="rotate(0,298,74)"/>
            <circle cx="298" cy="106" r="8" transform="rotate(0,298,106)"/>
            <circle cx="298" cy="186" r="8" transform="rotate(0,298,186)"/>
            <circle cx="298" cy="202" r="8" transform="rotate(0,298,202)"/>
            <circle cx="298" cy="234" r="8" transform="rotate(0,298,234)"/>
            <circle cx="298" cy="250" r="8" transform="rotate(0,298,250)"/>
            <circle cx="298" cy="298" r="8" transform="rotate(0,298,298)"/>
            <circle cx="298" cy="330" r="8" transform="rotate(0,298,330)"/>
            <circle cx="298" cy="346" r="8" transform="rotate(0,298,346)"/>
            <circle cx="298" cy="410" r="8" transform="rotate(0,298,410)"/>
            <circle cx="314" cy="26" r="8" transform="rotate(0,314,26)"/>
            <circle cx="314" cy="42" r="8" transform="rotate(0,314,42)"/>
            <circle cx="314" cy="58" r="8" transform="rotate(0,314,58)"/>
            <circle cx="314" cy="122" r="8" transform="rotate(0,314,122)"/>
            <circle cx="314" cy="154" r="8" transform="rotate(0,314,154)"/>
            <circle cx="314" cy="170" r="8" transform="rotate(0,314,170)"/>
            <circle cx="314" cy="186" r="8" transform="rotate(0,314,186)"/>
            <circle cx="314" cy="202" r="8" transform="rotate(0,314,202)"/>
            <circle cx="314" cy="282" r="8" transform="rotate(0,314,282)"/>
            <circle cx="314" cy="314" r="8" transform="rotate(0,314,314)"/>
            <circle cx="314" cy="330" r="8" transform="rotate(0,314,330)"/>
            <circle cx="314" cy="394" r="8" transform="rotate(0,314,394)"/>
            <circle cx="314" cy="474" r="8" transform="rotate(0,314,474)"/>
            <circle cx="330" cy="26" r="8" transform="rotate(0,330,26)"/>
            <circle cx="330" cy="42" r="8" transform="rotate(0,330,42)"/>
            <circle cx="330" cy="58" r="8" transform="rotate(0,330,58)"/>
            <circle cx="330" cy="74" r="8" transform="rotate(0,330,74)"/>
            <circle cx="330" cy="90" r="8" transform="rotate(0,330,90)"/>
            <circle cx="330" cy="154" r="8" transform="rotate(0,330,154)"/>
            <circle cx="330" cy="170" r="8" transform="rotate(0,330,170)"/>
            <circle cx="330" cy="186" r="8" transform="rotate(0,330,186)"/>
            <circle cx="330" cy="218" r="8" transform="rotate(0,330,218)"/>
            <circle cx="330" cy="234" r="8" transform="rotate(0,330,234)"/>
            <circle cx="330" cy="250" r="8" transform="rotate(0,330,250)"/>
            <circle cx="330" cy="266" r="8" transform="rotate(0,330,266)"/>
            <circle cx="330" cy="282" r="8" transform="rotate(0,330,282)"/>
            <circle cx="330" cy="314" r="8" transform="rotate(0,330,314)"/>
            <circle cx="330" cy="362" r="8" transform="rotate(0,330,362)"/>
            <circle cx="330" cy="378" r="8" transform="rotate(0,330,378)"/>
            <circle cx="330" cy="394" r="8" transform="rotate(0,330,394)"/>
            <circle cx="330" cy="442" r="8" transform="rotate(0,330,442)"/>
            <circle cx="330" cy="458" r="8" transform="rotate(0,330,458)"/>
            <circle cx="330" cy="474" r="8" transform="rotate(0,330,474)"/>
            <circle cx="346" cy="26" r="8" transform="rotate(0,346,26)"/>
            <circle cx="346" cy="42" r="8" transform="rotate(0,346,42)"/>
            <circle cx="346" cy="90" r="8" transform="rotate(0,346,90)"/>
            <circle cx="346" cy="106" r="8" transform="rotate(0,346,106)"/>
            <circle cx="346" cy="122" r="8" transform="rotate(0,346,122)"/>
            <circle cx="346" cy="186" r="8" transform="rotate(0,346,186)"/>
            <circle cx="346" cy="202" r="8" transform="rotate(0,346,202)"/>
            <circle cx="346" cy="218" r="8" transform="rotate(0,346,218)"/>
            <circle cx="346" cy="234" r="8" transform="rotate(0,346,234)"/>
            <circle cx="346" cy="250" r="8" transform="rotate(0,346,250)"/>
            <circle cx="346" cy="282" r="8" transform="rotate(0,346,282)"/>
            <circle cx="346" cy="298" r="8" transform="rotate(0,346,298)"/>
            <circle cx="346" cy="346" r="8" transform="rotate(0,346,346)"/>
            <circle cx="346" cy="362" r="8" transform="rotate(0,346,362)"/>
            <circle cx="346" cy="378" r="8" transform="rotate(0,346,378)"/>
            <circle cx="346" cy="394" r="8" transform="rotate(0,346,394)"/>
            <circle cx="346" cy="410" r="8" transform="rotate(0,346,410)"/>
            <circle cx="346" cy="442" r="8" transform="rotate(0,346,442)"/>
            <circle cx="346" cy="458" r="8" transform="rotate(0,346,458)"/>
            <circle cx="362" cy="154" r="8" transform="rotate(0,362,154)"/>
            <circle cx="362" cy="170" r="8" transform="rotate(0,362,170)"/>
            <circle cx="362" cy="202" r="8" transform="rotate(0,362,202)"/>
            <circle cx="362" cy="218" r="8" transform="rotate(0,362,218)"/>
            <circle cx="362" cy="234" r="8" transform="rotate(0,362,234)"/>
            <circle cx="362" cy="250" r="8" transform="rotate(0,362,250)"/>
            <circle cx="362" cy="266" r="8" transform="rotate(0,362,266)"/>
            <circle cx="362" cy="298" r="8" transform="rotate(0,362,298)"/>
            <circle cx="362" cy="314" r="8" transform="rotate(0,362,314)"/>
            <circle cx="362" cy="346" r="8" transform="rotate(0,362,346)"/>
            <circle cx="362" cy="410" r="8" transform="rotate(0,362,410)"/>
            <circle cx="362" cy="426" r="8" transform="rotate(0,362,426)"/>
            <circle cx="362" cy="442" r="8" transform="rotate(0,362,442)"/>
            <circle cx="378" cy="186" r="8" transform="rotate(0,378,186)"/>
            <circle cx="378" cy="202" r="8" transform="rotate(0,378,202)"/>
            <circle cx="378" cy="218" r="8" transform="rotate(0,378,218)"/>
            <circle cx="378" cy="234" r="8" transform="rotate(0,378,234)"/>
            <circle cx="378" cy="250" r="8" transform="rotate(0,378,250)"/>
            <circle cx="378" cy="266" r="8" transform="rotate(0,378,266)"/>
            <circle cx="378" cy="282" r="8" transform="rotate(0,378,282)"/>
            <circle cx="378" cy="330" r="8" transform="rotate(0,378,330)"/>
            <circle cx="378" cy="346" r="8" transform="rotate(0,378,346)"/>
            <circle cx="378" cy="378" r="8" transform="rotate(0,378,378)"/>
            <circle cx="378" cy="410" r="8" transform="rotate(0,378,410)"/>
            <circle cx="378" cy="442" r="8" transform="rotate(0,378,442)"/>
            <circle cx="394" cy="154" r="8" transform="rotate(0,394,154)"/>
            <circle cx="394" cy="170" r="8" transform="rotate(0,394,170)"/>
            <circle cx="394" cy="202" r="8" transform="rotate(0,394,202)"/>
            <circle cx="394" cy="266" r="8" transform="rotate(0,394,266)"/>
            <circle cx="394" cy="282" r="8" transform="rotate(0,394,282)"/>
            <circle cx="394" cy="314" r="8" transform="rotate(0,394,314)"/>
            <circle cx="394" cy="330" r="8" transform="rotate(0,394,330)"/>
            <circle cx="394" cy="346" r="8" transform="rotate(0,394,346)"/>
            <circle cx="394" cy="410" r="8" transform="rotate(0,394,410)"/>
            <circle cx="394" cy="426" r="8" transform="rotate(0,394,426)"/>
            <circle cx="394" cy="458" r="8" transform="rotate(0,394,458)"/>
            <circle cx="410" cy="154" r="8" transform="rotate(0,410,154)"/>
            <circle cx="410" cy="186" r="8" transform="rotate(0,410,186)"/>
            <circle cx="410" cy="202" r="8" transform="rotate(0,410,202)"/>
            <circle cx="410" cy="218" r="8" transform="rotate(0,410,218)"/>
            <circle cx="410" cy="250" r="8" transform="rotate(0,410,250)"/>
            <circle cx="410" cy="266" r="8" transform="rotate(0,410,266)"/>
            <circle cx="410" cy="298" r="8" transform="rotate(0,410,298)"/>
            <circle cx="410" cy="330" r="8" transform="rotate(0,410,330)"/>
            <circle cx="410" cy="346" r="8" transform="rotate(0,410,346)"/>
            <circle cx="410" cy="362" r="8" transform="rotate(0,410,362)"/>
            <circle cx="410" cy="378" r="8" transform="rotate(0,410,378)"/>
            <circle cx="410" cy="394" r="8" transform="rotate(0,410,394)"/>
            <circle cx="410" cy="410" r="8" transform="rotate(0,410,410)"/>
            <circle cx="410" cy="458" r="8" transform="rotate(0,410,458)"/>
            <circle cx="410" cy="474" r="8" transform="rotate(0,410,474)"/>
            <circle cx="426" cy="154" r="8" transform="rotate(0,426,154)"/>
            <circle cx="426" cy="250" r="8" transform="rotate(0,426,250)"/>
            <circle cx="426" cy="314" r="8" transform="rotate(0,426,314)"/>
            <circle cx="426" cy="394" r="8" transform="rotate(0,426,394)"/>
            <circle cx="426" cy="426" r="8" transform="rotate(0,426,426)"/>
            <circle cx="426" cy="442" r="8" transform="rotate(0,426,442)"/>
            <circle cx="426" cy="458" r="8" transform="rotate(0,426,458)"/>
            <circle cx="442" cy="170" r="8" transform="rotate(0,442,170)"/>
            <circle cx="442" cy="186" r="8" transform="rotate(0,442,186)"/>
            <circle cx="442" cy="218" r="8" transform="rotate(0,442,218)"/>
            <circle cx="442" cy="250" r="8" transform="rotate(0,442,250)"/>
            <circle cx="442" cy="266" r="8" transform="rotate(0,442,266)"/>
            <circle cx="442" cy="314" r="8" transform="rotate(0,442,314)"/>
            <circle cx="442" cy="346" r="8" transform="rotate(0,442,346)"/>
            <circle cx="442" cy="362" r="8" transform="rotate(0,442,362)"/>
            <circle cx="442" cy="394" r="8" transform="rotate(0,442,394)"/>
            <circle cx="442" cy="410" r="8" transform="rotate(0,442,410)"/>
            <circle cx="442" cy="442" r="8" transform="rotate(0,442,442)"/>
            <circle cx="442" cy="458" r="8" transform="rotate(0,442,458)"/>
            <circle cx="442" cy="474" r="8" transform="rotate(0,442,474)"/>
            <circle cx="458" cy="154" r="8" transform="rotate(0,458,154)"/>
            <circle cx="458" cy="170" r="8" transform="rotate(0,458,170)"/>
            <circle cx="458" cy="186" r="8" transform="rotate(0,458,186)"/>
            <circle cx="458" cy="202" r="8" transform="rotate(0,458,202)"/>
            <circle cx="458" cy="218" r="8" transform="rotate(0,458,218)"/>
            <circle cx="458" cy="282" r="8" transform="rotate(0,458,282)"/>
            <circle cx="458" cy="362" r="8" transform="rotate(0,458,362)"/>
            <circle cx="458" cy="410" r="8" transform="rotate(0,458,410)"/>
            <circle cx="458" cy="442" r="8" transform="rotate(0,458,442)"/>
            <circle cx="458" cy="474" r="8" transform="rotate(0,458,474)"/>
            <circle cx="474" cy="186" r="8" transform="rotate(0,474,186)"/>
            <circle cx="474" cy="202" r="8" transform="rotate(0,474,202)"/>
            <circle cx="474" cy="234" r="8" transform="rotate(0,474,234)"/>
            <circle cx="474" cy="266" r="8" transform="rotate(0,474,266)"/>
            <circle cx="474" cy="282" r="8" transform="rotate(0,474,282)"/>
            <circle cx="474" cy="346" r="8" transform="rotate(0,474,346)"/>
            <circle cx="474" cy="394" r="8" transform="rotate(0,474,394)"/>
            <circle cx="474" cy="410" r="8" transform="rotate(0,474,410)"/>
        </clipPath>
        <clipPath id="clip-path-corners-square-color-0-0">
            <path clip-rule="evenodd"
                  d="M 18 58v 32a 40 40, 0, 0, 0, 40 40h 32a 40 40, 0, 0, 0, 40 -40v -32a 40 40, 0, 0, 0, -40 -40h -32a 40 40, 0, 0, 0, -40 40M 58 34h 32a 24 24, 0, 0, 1, 24 24v 32a 24 24, 0, 0, 1, -24 24h -32a 24 24, 0, 0, 1, -24 -24v -32a 24 24, 0, 0, 1, 24 -24"
                  transform="rotate(0,74,74)"/>
        </clipPath>
        <clipPath id="clip-path-corners-dot-color-0-0">
            <circle cx="74" cy="74" r="24" transform="rotate(0,74,74)"/>
        </clipPath>
        <clipPath id="clip-path-corners-square-color-1-0">
            <path clip-rule="evenodd"
                  d="M 370 58v 32a 40 40, 0, 0, 0, 40 40h 32a 40 40, 0, 0, 0, 40 -40v -32a 40 40, 0, 0, 0, -40 -40h -32a 40 40, 0, 0, 0, -40 40M 410 34h 32a 24 24, 0, 0, 1, 24 24v 32a 24 24, 0, 0, 1, -24 24h -32a 24 24, 0, 0, 1, -24 -24v -32a 24 24, 0, 0, 1, 24 -24"
                  transform="rotate(90,426,74)"/>
        </clipPath>
        <clipPath id="clip-path-corners-dot-color-1-0">
            <circle cx="426" cy="74" r="24" transform="rotate(90,426,74)"/>
        </clipPath>
        <clipPath id="clip-path-corners-square-color-0-1">
            <path clip-rule="evenodd"
                  d="M 18 410v 32a 40 40, 0, 0, 0, 40 40h 32a 40 40, 0, 0, 0, 40 -40v -32a 40 40, 0, 0, 0, -40 -40h -32a 40 40, 0, 0, 0, -40 40M 58 386h 32a 24 24, 0, 0, 1, 24 24v 32a 24 24, 0, 0, 1, -24 24h -32a 24 24, 0, 0, 1, -24 -24v -32a 24 24, 0, 0, 1, 24 -24"
                  transform="rotate(-90,74,426)"/>
        </clipPath>
        <clipPath id="clip-path-corners-dot-color-0-1">
            <circle cx="74" cy="426" r="24" transform="rotate(-90,74,426)"/>
        </clipPath>
    </defs>
    <rect x="0" y="0" height="500" width="500" clip-path="url('#clip-path-background-color')" fill="#fff"/>
    <rect x="0" y="0" height="500" width="500" clip-path="url('#clip-path-dot-color')" fill="#000"/>
    <rect x="18" y="18" height="112" width="112" clip-path="url('#clip-path-corners-square-color-0-0')" fill="#672bcb"/>
    <rect x="50" y="50" height="48" width="48" clip-path="url('#clip-path-corners-dot-color-0-0')" fill="#000"/>
    <rect x="370" y="18" height="112" width="112" clip-path="url('#clip-path-corners-square-color-1-0')"
          fill="#f0495d"/>
    <rect x="402" y="50" height="48" width="48" clip-path="url('#clip-path-corners-dot-color-1-0')" fill="#000"/>
    <rect x="18" y="370" height="112" width="112" clip-path="url('#clip-path-corners-square-color-0-1')"
          fill="#e99312"/>
    <rect x="50" y="402" height="48" width="48" clip-path="url('#clip-path-corners-dot-color-0-1')" fill="#000"/>
</svg>